<?xml version="1.0" standalone="no"?>
<!DOCTYPE svg PUBLIC "-//W3C//DTD SVG 1.1//EN" "http://www.w3.org/Graphics/SVG/1.1/DTD/svg11.dtd" >
<svg xmlns="http://www.w3.org/2000/svg">
<metadata>
Created by FontForge 20120731 at Mon Jul 24 07:53:28 2017
 By admin
</metadata>
<defs>
<font id="iconfont" horiz-adv-x="1024" >
  <font-face 
    font-family="iconfont"
    font-weight="500"
    font-stretch="normal"
    units-per-em="1024"
    panose-1="2 0 6 3 0 0 0 0 0 0"
    ascent="896"
    descent="-128"
    x-height="792"
    bbox="-17 -224 1204 913"
    underline-thickness="0"
    underline-position="0"
    unicode-range="U+0078-E8F0"
  />
<missing-glyph 
 />
    <glyph glyph-name=".notdef" 
 />
    <glyph glyph-name=".notdef" 
 />
    <glyph glyph-name=".null" horiz-adv-x="0" 
 />
    <glyph glyph-name="nonmarkingreturn" horiz-adv-x="341" 
 />
    <glyph glyph-name="x" unicode="x" horiz-adv-x="1001" 
d="M281 543q-27 -1 -53 -1h-83q-18 0 -36.5 -6t-32.5 -18.5t-23 -32t-9 -45.5v-76h912v41q0 16 -0.5 30t-0.5 18q0 13 -5 29t-17 29.5t-31.5 22.5t-49.5 9h-133v-97h-438v97zM955 310v-52q0 -23 0.5 -52t0.5 -58t-10.5 -47.5t-26 -30t-33 -16t-31.5 -4.5q-14 -1 -29.5 -0.5
t-29.5 0.5h-32l-45 128h-439l-44 -128h-29h-34q-20 0 -45 1q-25 0 -41 9.5t-25.5 23t-13.5 29.5t-4 30v167h911zM163 247q-12 0 -21 -8.5t-9 -21.5t9 -21.5t21 -8.5q13 0 22 8.5t9 21.5t-9 21.5t-22 8.5zM316 123q-8 -26 -14 -48q-5 -19 -10.5 -37t-7.5 -25t-3 -15t1 -14.5
t9.5 -10.5t21.5 -4h37h67h81h80h64h36q23 0 34 12t2 38q-5 13 -9.5 30.5t-9.5 34.5q-5 19 -11 39h-368zM336 498v228q0 11 2.5 23t10 21.5t20.5 15.5t34 6h188q31 0 51.5 -14.5t20.5 -52.5v-227h-327z" />
    <glyph glyph-name="liebiao" unicode="&#xe623;" horiz-adv-x="1000" 
d="M72 822h244v-244h-244v244zM376 822h244v-244h-244v244zM681 822h244v-244h-244v244zM72 520h244v-244h-244v244zM376 520h244v-244h-244v244zM681 520h244v-244h-244v244zM72 218h244v-245h-244v245zM376 218h244v-245h-244v245zM681 218h244v-245h-244v245z" />
    <glyph glyph-name="minus" unicode="&#xe61f;" 
d="M768 343h-512q-35 0 -60 -25t-25 -60.5t25 -60.5t60 -25h512q35 0 60 25t25 60.5t-25 60.5t-60 25z" />
    <glyph glyph-name="plus" unicode="&#xe620;" 
d="M768 385h-171v171q0 35 -25 60t-60 25t-60 -25t-25 -60l3 -171h-174q-35 0 -60 -25t-25 -60t25 -60t60 -25l174 3l-3 -174q0 -35 25 -60t60 -25t60 25t25 60v174l171 -3q35 0 60 25t25 60t-25 60t-60 25z" />
    <glyph glyph-name="mima" unicode="&#xe62f;" 
d="M896 492h-512v-128h384v-64h64v64h64v128zM256 620q-80 0 -136 -56.5t-56 -136t56 -135.5t136 -56t136 56t56 135.5t-56 136t-136 56.5zM256 300q-53 0 -90.5 37.5t-37.5 90.5t37.5 90.5t90.5 37.5t90.5 -37.5t37.5 -90.5t-37.5 -90.5t-90.5 -37.5z" />
    <glyph glyph-name="share" unicode="&#xe614;" 
d="M864 108q-68 0 -115 -49l-431 216q2 12 2 25t-2 25l431 216q47 -49 115 -49q66 0 113 47t47 113t-47 113t-113 47t-113 -47t-47 -113q0 -13 2 -25l-431 -216q-47 49 -115 49q-66 0 -113 -47t-47 -113t47 -113t113 -47q68 0 115 49l431 -216q-2 -12 -2 -25q0 -66 47 -113
t113 -47t113 47t47 113t-47 113t-113 47z" />
    <glyph glyph-name="glu" unicode="&#xe60a;" 
d="M779 242q0 -5 -15 -27t-34 -47.5t-34.5 -64t-15.5 -74.5q0 -45 29 -76t70 -31t70 32t29 75q0 35 -15.5 73.5t-34 64.5t-34 48t-15.5 27zM750 149q-12 -18 -15.5 -26t-13.5 -35q-3 -10 -6 -22t-5 -20.5t-3.5 -15.5t-3.5 -10.5t-5 -2.5q-4 2 -4 14q0 20 12 52q2 4 3 7
q16 36 41 59zM279 -156q-52 0 -92.5 27.5t-40.5 74.5q0 99 -1 731l-92 35v29l442 1v-29l-89 -35l1 -723q0 -54 -38 -82.5t-90 -28.5zM59 717l92 -35v-2q1 -649 1 -734q0 -44 38.5 -70t88.5 -26t85.5 27t35.5 78v727l89 35v19l-430 -1v-18v0zM127 721h293v-6h-293v6zM170 322
q1 -280 1 -372q0 -30 21.5 -51.5t52.5 -27t62 -1t52.5 28t21.5 58.5v365h-211zM170 663h5v-341h-5v341zM710 505v-28q0 -5 -1 -8.5t-4 -6t-7 -5.5q-13 -7 -25 -10t-27 -3q-16 0 -30 5t-23.5 14.5t-14.5 23.5t-5 31t5 31t14.5 24t23.5 15t32 5q14 0 25.5 -4t18.5 -10
t10.5 -12.5t3.5 -11.5t-4 -9t-10 -4q-3 0 -6 1.5t-5 3.5q-5 9 -9 13.5t-10.5 7t-15.5 2.5q-11 0 -18.5 -3.5t-13.5 -10t-9 -16t-3 -21.5q0 -25 12 -39t32 -14q11 0 19.5 3t18.5 8v23h-23q-8 0 -12.5 2.5t-4.5 8.5q0 5 3.5 8t9.5 3h34q6 0 10 -1t6.5 -5t2.5 -11zM769 460v117
q0 8 3.5 12t9.5 4t10 -4t4 -12v-117q0 -8 -4 -12t-10 -4t-9.5 4t-3.5 12zM926 459v3q-5 -6 -10.5 -10t-11.5 -6t-15 -2t-17 4t-12 11q-5 9 -5 25v53q0 8 3.5 12t9.5 4t10 -4t4 -12v-43q0 -10 1.5 -16t5.5 -9.5t11 -3.5t13 4t9 10q2 6 2 25v33q0 8 4 12t10 4t9.5 -4t3.5 -12
v-78q0 -8 -3.5 -11.5t-9 -3.5t-9 4t-3.5 11z" />
    <glyph glyph-name="delete" unicode="&#xe627;" 
d="M809 81l-78 -78l-219 219l-219 -219l-78 78l219 219l-219 219l78 78l219 -219l219 219l78 -78l-219 -219z" />
    <glyph glyph-name="exit" unicode="&#xe621;" 
d="M129 364v320h703q-1 72 0 84q-2 44 -65 44h-703h-6.5t-15.5 -3t-19.5 -9t-15.5 -19.5t-7 -33.5v-383v-128v-383q0 -20 6.5 -33.5t16 -19.5t19 -9t16.5 -3h6h703q63 0 65 44v84h-703v320v128zM1013 302l-310 318l-1 -215h-383v-198h383v-226z" />
    <glyph glyph-name="share1" unicode="&#xe608;" 
d="M768 727q71 0 121 -50t50 -121t-50 -121t-121 -50q-38 0 -71.5 15.5t-57.5 43.5l-216 -108q4 -18 4 -36t-4 -36l216 -108q24 28 57.5 43.5t71.5 15.5q71 0 121 -50t50 -121t-50 -121t-121 -50t-121 50t-50 121q0 18 4 36l-216 108q-24 -28 -57.5 -43.5t-71.5 -15.5
q-71 0 -121 50t-50 121t50 121t121 50q38 0 71.5 -15.5t57.5 -43.5l216 108q-4 18 -4 36q0 71 50 121t121 50zM256 385q-35 0 -60 -25t-25 -60t25 -60t60 -25t60 25t25 60t-25 60t-60 25zM768 129q-35 0 -60 -25t-25 -60t25 -60t60 -25t60 25t25 60t-25 60t-60 25zM768 641
q-35 0 -60 -25t-25 -60t25 -60t60 -25t60 25t25 60t-25 60t-60 25z" />
    <glyph glyph-name="liebiao1" unicode="&#xe632;" 
d="M477 483q0 -31 -22 -53t-53 -22h-267q-31 0 -53 22t-22 53v278q0 31 22 53t53 22h267q31 0 53 -22t22 -53v-278zM477 7q0 -31 -22 -53t-53 -22h-267q-31 0 -53 22t-22 53v278q0 31 22 53t53 22h267q31 0 53 -22t22 -53v-278zM965 483q0 -31 -22 -53t-53 -22h-267
q-31 0 -53 22t-22 53v278q0 31 22 53t53 22h267q31 0 53 -22t22 -53v-278zM965 7q0 -31 -22 -53t-53 -22h-267q-31 0 -53 22t-22 53v278q0 31 22 53t53 22h267q31 0 53 -22t22 -53v-278z" />
    <glyph glyph-name="setting" unicode="&#xe61e;" 
d="M599 -219h-174l-27 157q-27 9 -53 22l-129 -92l-124 124l92 129q-13 26 -22 54l-157 26v174l157 27q9 27 22 53l-92 130l124 123l129 -92q26 13 53 22l27 157h174l27 -157q27 -9 53 -22l130 92l123 -123l-92 -130q13 -26 22 -53l157 -27v-174l-157 -26q-9 -28 -22 -54
l92 -129l-124 -124l-129 92q-26 -13 -54 -22zM461 -176h102l25 147l13 4q36 10 69 29l12 7l122 -87l72 72l-87 122l7 12q19 33 29 69l4 13l147 25v102l-147 25l-4 13q-10 37 -29 69l-7 12l87 122l-72 72l-122 -86l-12 6q-33 19 -69 29l-13 4l-25 147h-102l-25 -147l-13 -4
q-36 -10 -69 -29l-12 -6l-122 86l-72 -72l86 -122l-6 -12q-19 -33 -29 -69l-4 -13l-147 -25v-102l147 -25l4 -13q10 -36 29 -69l6 -12l-86 -122l72 -72l122 86l12 -6q33 -19 69 -29l13 -4zM512 139q-62 0 -105.5 43.5t-43.5 105.5t43.5 105.5t105.5 43.5t105.5 -43.5
t43.5 -105.5t-43.5 -105.5t-105.5 -43.5zM512 416q-53 0 -90.5 -37.5t-37.5 -90.5t37.5 -90.5t90.5 -37.5t90.5 37.5t37.5 90.5t-37.5 90.5t-90.5 37.5z" />
    <glyph glyph-name="jijiu" unicode="&#xe603;" 
d="M43 635v0h513v77q0 10 6.5 17t16.5 7h1h98q10 0 17 -7t7 -17v-1v-76h216q15 0 26 -10t13 -25l65 -341l0.5 -3t0.5 -5v-213q0 -16 -11.5 -27.5t-28.5 -11.5h-1h-51q-15 -36 -45 -62v0q-45 -38 -102 -38q-58 0 -103 38q-29 25 -45 62h-123h-150q-15 -37 -45 -62v0
q-44 -38 -102 -38t-102 38q-31 26 -45 62h-26q-17 0 -28.5 11.5t-11.5 27.5v1v278v279q0 16 11.5 27.5t28.5 11.5v0zM945 199v0h-864v-122h17v0q14 0 25 -9t14 -23q4 -29 27 -48q22 -19 52 -19t52 19q22 18 27 45q2 15 13 25t26 10h179h152v0q14 0 25.5 -9t13.5 -23
q5 -29 27 -48t53 -19q29 0 51 18.5t27 45.5q2 15 13 25t26 10h44v122v0zM81 246v0h864v2l-6 29h-261q-9 0 -16 7t-7 17v255h-574v-239v-71v0zM369 495v0v-42l-37 21q-8 5 -17.5 2.5t-14.5 -10.5q-4 -9 -1.5 -18t10.5 -14l37 -21l-37 -22q-8 -4 -10.5 -13.5t2 -18t14 -11
t17.5 2.5l37 21v-42q0 -10 7 -17t16.5 -7t16.5 7t7 17v42l36 -21q9 -5 18.5 -2.5t14.5 11.5q5 8 2 17.5t-11 13.5l-37 22l37 21q8 5 11 14t-2 18q-5 8 -14.5 10.5t-18.5 -2.5l-36 -21v42q0 10 -7 17t-16.5 7t-16.5 -7t-7 -17v0zM602 635v0h53v54h-53v-54v0zM702 556v0v-231
h228l-44 231h-184v0zM784 100v0q-17 0 -29.5 -12t-12.5 -29t12.5 -29t29.5 -12q16 0 28 12t12 29t-12 29t-28 12v0zM216 100v0q-17 0 -29 -12t-12 -29t12 -29t29 -12t29 12t12 29t-12 29t-29 12v0z" />
    <glyph glyph-name="next" unicode="&#xe60d;" 
d="M612 300l-274 274q-19 19 -19 45.5t19 45.5t46 19t45 -19l320 -319q19 -19 19 -45.5t-19 -45.5l-320 -319q-18 -19 -45 -19t-46 19t-19 45.5t19 45.5z" />
    <glyph glyph-name="pre" unicode="&#xe60f;" 
d="M475 300l273 274q19 19 19 45.5t-19 45.5t-45.5 19t-45.5 -19l-318 -319q-19 -19 -19 -45.5t19 -45.5l318 -319q19 -19 45.5 -19t45.5 19t19 45.5t-19 45.5z" />
    <glyph glyph-name="yaopin" unicode="&#xe604;" 
d="M542 745q-109 0 -186 -77t-77 -186v-362q0 -109 77 -186t186 -77t186 77t77 186v362q0 109 -77 186t-186 77zM736 99q0 -69 -55.5 -117.5t-134.5 -48.5t-135 48.5t-56 117.5v227h381v-227z" />
    <glyph glyph-name="navjibing" unicode="&#xe600;" 
d="M616 278q11 3 23 3h-90l-4 -20l10 -10q27 21 61 27zM405 160q81 55 89 121h-89v-121zM512 800q-104 0 -199 -40.5t-163.5 -109t-109 -163.5t-40.5 -199t40.5 -199t109 -163.5t163.5 -109t199 -40.5t199 40.5t163.5 109t109 163.5t40.5 199t-40.5 199t-109 163.5
t-163.5 109t-199 40.5zM230 471q4 -15 13 -46q15 -51 22 -77l-40 -11q-2 8 -4 18q-23 76 -31 105zM243 51q-7 5 -29 22q-11 11 -17 15q68 74 72 171q-29 -20 -72 -44l-11 59q19 9 66 31q13 8 19 11v205h199l-17 50l68 7q8 -30 17 -57h177v-50h-389v-140q6 -182 -83 -280z
M833 11q-7 -10 -19 -12.5t-22 4.5l-60 42q-29 -28 -68 -35q-55 -10 -101.5 22t-56.5 88q-6 33 4 65v0q-25 -33 -68 -64q-18 20 -37 37v-103h-55v271h149l2 53h-158v48h366v-48h-156v-53h145v-58v0q29 -14 49.5 -40t26.5 -59q7 -39 -8 -76l60 -42q9 -7 11.5 -18.5t-4.5 -21.5
zM625.5 223q-32.5 -6 -51.5 -33t-13 -60t33.5 -51.5t60 -12.5t51 33t13 59.5t-33 51.5t-60 13z" />
    <glyph glyph-name="linchuangpingfen" unicode="&#xe605;" 
d="M260 812h58q8 0 14 -5.5t6 -12.5v-148q0 -8 -6 -13t-14 -5h-58q-8 0 -14 5t-6 13v148q0 7 6 12.5t14 5.5zM596 -71l229 228l97 -98l-228 -228l-141 -43zM864 196l31 31q10 10 24.5 10t24.5 -10l49 -49q10 -10 10 -24.5t-10 -24.5l-32 -31zM201 59h390v-48h-390v48z
M201 211h490v-48h-490v48zM201 362h490v-47h-490v47zM201 514h490v-48h-490v48zM218 754v-63h-7q-21 0 -32.5 -0.5t-31 -4t-30 -10.5t-18.5 -21t-8 -34v-700q0 -30 22.5 -49.5t52.5 -19.5h280v-64h-280q-57 0 -101 38t-44 95v700q0 34 12.5 59t31 39t46.5 22t52.5 10.5
t54.5 2.5zM781 251v370q0 15 -5 26.5t-11 19t-19 12.5t-20.5 7t-25.5 3.5t-23.5 1.5h-23.5v63q197 0 197 -133v-370h-69zM361 754h150v-63h-150v63zM553 812h59q8 0 13.5 -5.5t5.5 -12.5v-148q0 -8 -5.5 -13t-13.5 -5h-59q-8 0 -13.5 5t-5.5 13v148q0 7 5.5 12.5t13.5 5.5z
" />
    <glyph glyph-name="xunzhenshouye" unicode="&#xe61b;" 
d="M296 265q24 -57 82.5 -93t133.5 -36q74 0 135.5 36.5t79.5 92.5v0q-18 60 -79.5 100.5t-135.5 40.5v0q-74 0 -133 -39.5t-83 -101.5v0zM403 270q0 42 32 71t77 29v0q45 0 76.5 -29t31.5 -71v0q0 -40 -32 -68.5t-76 -28.5v0q-45 0 -77 28.5t-32 68.5v0zM590 270v2v5v0
q-11 -7 -26 -7v0q-22 0 -37 14t-15 35v0q0 9 5 24v0h-5v0q-34 0 -57 -21t-23 -52v0q0 -29 23 -50t57 -21q33 0 55.5 21t22.5 50v0zM274 -122v0q-55 0 -88 37q-36 36 -36 85v197h-5v0q-16 0 -34 7q-17 9 -27 22v0q-10 11 -15 27q-4 20 -4 32v0q0 17 7 39q10 19 22 31v0
l333 331q15 19 39 27q20 10 46 10v0v0q25 0 44 -10q24 -8 39 -27v0l334 -331v0q12 -12 22 -31q7 -22 7 -39q0 -13 -5 -32v0q-4 -16 -14 -27v0q-11 -13 -27 -22q-18 -7 -34 -7v0h-5v-197v0q0 -49 -37 -85q-33 -37 -87 -37v0q-35 0 -96 1.5t-111 1.5t-95 -3h-173zM143 277v0
q2 0 2 -2v0h73h10v-10v-265v0q0 -17 14 -32q12 -12 32 -12v0h95h285h95v0q19 0 31 12q15 15 15 32v0v265l10 10h73v0q0 2 2 2v0v8v0q0 5 -2 7v0q0 7 -5 7v0l-331 334q-3 1 -7.5 4.5t-7.5 5.5q-2 0 -7 1t-8 1t-8.5 -1t-8.5 -1q-2 -2 -7 -5.5t-7 -4.5l-331 -334v0q-5 0 -5 -7
v0q-2 -2 -2 -7v0v-8v0z" />
    <glyph glyph-name="sosanniu" unicode="&#xe618;" horiz-adv-x="1366" 
d="M737 371q-56 0 -56 -89q0 -87 56 -87q58 0 58 87q2 89 -58 89zM733.5 760q-95.5 0 -182.5 -37t-150 -100t-100.5 -150t-37.5 -183t37.5 -183t100.5 -150t150 -100t182.5 -37t182.5 37t150 100t100.5 150t37.5 183t-37.5 183t-100.5 150t-150 100t-182.5 37zM453 145
q-114 2 -118 81h75q4 -29 43 -31q37 0 37 29q-2 23 -53 33q-102 19 -98 87q4 71 114 79q102 0 108 -79h-73q-2 25 -35 27q-31 0 -31 -25q0 -16 52 -29q99 -27 99 -89q-6 -74 -120 -83zM737 145q-132 5 -138 137q6 135 138 141q133 -6 139 -141q-6 -132 -139 -137zM1031 145
q-113 2 -118 81h75q4 -29 43 -31q38 0 38 29q-2 23 -54 33q-102 19 -97 87q4 71 113 79q102 0 108 -79h-72q-2 25 -36 27q-31 0 -31 -25q0 -16 52 -29q100 -27 100 -89q-7 -74 -121 -83z" />
    <glyph glyph-name="bingrenguanli" unicode="&#xe601;" 
d="M954 -22v0q0 -13 -9.5 -22t-22.5 -9h-185q13 3 22 13.5t9 24.5v0v0q0 6 -0.5 15.5t-6.5 37t-15.5 50.5t-31 49t-50.5 40q-20 10 -30 14t-23 6.5t-16 2.5l1 61q-3 3 -7 7.5t-12.5 24t-12.5 45.5q-10 -3 -15 7t-6 24q0 2 -1 11t-1 15t0.5 13.5t3.5 10.5t8 2q-7 51 -5 68
q3 37 36.5 67t84.5 33q57 -2 86.5 -31t33.5 -69q2 -16 -5 -68q5 1 8 -2t3.5 -10.5t0 -13.5t-1.5 -15t-1 -11q-1 -13 -6 -23.5t-15 -7.5q-3 -26 -11 -45t-14 -25l-6 -6v-61q77 -42 130 -68q23 -12 40 -32.5t25 -39.5t12.5 -40.5t5 -29.5t0.5 -13v0v0zM533 187
q35 -14 56 -17.5t50 -18.5q26 -13 45 -35.5t27.5 -43t13.5 -44.5t5.5 -33t0.5 -14v0v0q0 -14 -10 -24t-25 -10h-591q-15 0 -25 10t-10 24v0v0q0 6 0.5 14.5t5.5 32.5t13.5 44.5t27.5 43t45 35.5q149 74 147 74v68q-3 2 -7.5 7t-14 26.5t-13.5 49.5q-11 -3 -16.5 8.5
t-6.5 26.5q0 2 -1 12t-1 16.5t0.5 14.5t3.5 12t9 2q-7 56 -6 74q4 42 41 75t92 36q64 -3 96 -34.5t37 -76.5q1 -17 -6 -74q5 2 8.5 -2t4 -12t0.5 -14.5t-1.5 -16.5t-1.5 -12q-1 -15 -6.5 -26.5t-16.5 -8.5q-4 -28 -12.5 -48.5t-15.5 -27.5l-7 -7l1 -67q-2 -5 15 -15
q17 -11 49 -24v0z" />
    <glyph glyph-name="yibao" unicode="&#xe607;" 
d="M488 507h176v-101h-176v101zM512 722q-114 0 -211.5 -56.5t-154 -154t-56.5 -211.5t56.5 -211.5t154 -154t211.5 -56.5t211.5 56.5t154 154t56.5 211.5t-56.5 211.5t-154 154t-211.5 56.5zM304 27q3 39 3 113v223q-33 -56 -59 -89q-12 21 -30 35q49 59 83 133t46 131
q19 -14 52 -24q-12 -16 -26.5 -47t-23.5 -56v-304q0 -75 2 -115h-47zM744 70q-56 30 -92.5 77t-55.5 94v-129q0 -54 2 -85h-49q2 34 2 80v144q-56 -113 -143 -186q-14 21 -42 33q82 44 136 155h-33q-49 0 -82 -2v44q32 -2 77 -2h87v75h-108q3 34 3 90q0 58 -3 86h266
q-3 -34 -3 -91q0 -55 3 -85h-113v-75h71q63 0 98 2v-44q-40 2 -94 2h-40q21 -47 59 -83.5t89 -55.5q-19 -16 -35 -44z" />
    <glyph glyph-name="knowledge-base" unicode="&#xe602;" horiz-adv-x="1053" 
d="M10 -183q0 -11 8 -19.5t20 -8.5h175q11 0 19.5 8.5t8.5 19.5v948q0 12 -8.5 20t-19.5 8h-175q-12 0 -20 -8t-8 -20v-948zM74 617q25 11 52 11h9q28 0 53 -11q17 -8 17 -31q0 -10 -4.5 -17.5t-8.5 -10.5l-4 -2q-25 -11 -53 -11h-9q-27 0 -52 11q-17 7 -17 30q0 11 4 18.5
t8 9.5zM74 470q25 11 52 11h9q28 0 53 -11q17 -8 17 -31q0 -10 -4.5 -17.5t-8.5 -10.5l-4 -2q-25 -12 -53 -12h-9q-27 0 -52 12q-17 7 -17 30q0 10 4 18t8 10zM74 322q25 12 52 12h9q28 0 53 -12q17 -7 17 -30q0 -10 -4.5 -18t-8.5 -10l-4 -3q-25 -11 -53 -11h-8
q-28 0 -53 11q-17 8 -17 31q0 10 4 17.5t8 10.5zM311 -183q0 -11 8 -19.5t20 -8.5h175q11 0 19.5 8.5t8.5 19.5v948q0 12 -8.5 20t-19.5 8h-175q-12 0 -20 -8t-8 -20v-948zM770 776q-3 11 -13 16.5t-21 2.5l-167 -51q-11 -4 -16.5 -14t-2.5 -21l277 -907q3 -11 13 -16.5
t21 -2.5l168 52q10 3 15.5 13t2.5 21z" />
    <glyph glyph-name="shouru" unicode="&#xe625;" 
d="M715 307q7 0 12.5 5t5.5 12v33q0 7 -5.5 12.5t-12.5 5.5h-123l68 112q6 9 0 18q-5 10 -16 10h-39q-11 0 -17 -9l-79 -131h-5l-81 131q-6 9 -17 9h-39q-11 0 -16 -10t0 -18l68 -112h-109q-7 0 -12 -5.5t-5 -12.5v-33q0 -7 5 -12t12 -5h161v-75h-161q-7 0 -12 -5.5
t-5 -12.5v-33q0 -7 5 -12.5t12 -5.5h161v-68q0 -7 5.5 -12.5t12.5 -5.5h33q7 0 12.5 5.5t5.5 12.5v68h175q7 0 12.5 5.5t5.5 12.5v33q0 7 -5.5 12.5t-12.5 5.5h-174v75h174zM512 763q94 0 180 -36.5t148 -98.5t98.5 -148t36.5 -180t-36.5 -180t-98.5 -148t-148 -98.5
t-180 -36.5t-180 36.5t-148 98.5t-98.5 148t-36.5 180t36.5 180t98.5 148t148 98.5t180 36.5zM512 812q-139 0 -257 -68.5t-186.5 -186.5t-68.5 -257t68.5 -257t186.5 -186.5t257 -68.5t257 68.5t186.5 186.5t68.5 257t-68.5 257t-186.5 186.5t-257 68.5v0z" />
    <glyph glyph-name="tel" unicode="&#xe615;" horiz-adv-x="1025" 
d="M53 602q2 4 5 9.5t14 19.5t23.5 24t32 17t40 3.5t47.5 -21.5t55 -52q38 -47 52 -86.5t7.5 -62.5t-20.5 -39t-25.5 -22t-13.5 -6q-3 -4 -9 -9.5t-17.5 -23t-17 -33.5t-1 -36.5t24.5 -35.5q31 -24 92 -74.5t105.5 -88.5l44.5 -38q3 -4 8 -9.5t20.5 -17.5t31.5 -17.5
t38.5 -2t42.5 21.5q49 39 77.5 53.5t56 11t63.5 -29.5q218 -159 -25 -251q-33 -16 -74 -17.5t-81.5 8t-85.5 28.5t-83.5 40.5t-79 48.5t-68 48t-54.5 43t-35.5 29.5t-13.5 12.5v0q-8 7 -20.5 19.5t-46.5 52t-62 79t-56 95t-39 105.5t-1 105t48 99zM522 516q0 1 -6.5 -0.5
t-16 2t-18.5 8.5t-13.5 18.5t-0.5 33.5q4 23 38.5 30.5t72.5 -4.5q20 -5 45 -16.5t61.5 -36.5t65.5 -57t51 -82.5t24 -109.5q0 -2 -1.5 -6t-6 -13.5t-10.5 -16t-17 -10.5t-23 0q-17 4 -26 21t-10 35.5t-1.5 36.5t-0.5 24q-1 7 -9 22.5t-25 37.5t-40 41t-58.5 31.5
t-74.5 10.5zM653 695q0 1 -8 -0.5t-20 3t-22.5 10.5t-16 22.5t-0.5 40.5q5 28 47 37.5t89 -4.5q24 -7 54.5 -21t75 -45t80 -70t62.5 -101t30 -133q0 -2 -1 -4.5t-4 -10.5t-6.5 -14t-10 -14.5t-13 -12t-16 -5.5t-20.5 4q-12 5 -21.5 19.5t-14.5 34.5t-7.5 36t-4 35.5
t-1.5 20.5q-2 9 -11 27.5t-30 45t-48.5 49.5t-70.5 38t-91 12z" />
    <glyph glyph-name="zhouzhuantongji" unicode="&#xe62c;" 
d="M719 170h-209q-14 -18 -39 -32h248q7 0 12 5t5 12q0 6 -5 10.5t-12 4.5v0zM460 431h260q7 0 12 4.5t5 11.5t-5 12t-12 5h-260q-7 0 -12 -5t-5 -12t5 -11.5t12 -4.5v0zM719 219h-185q-6 -20 -14 -32h199q7 0 12 5t5 12q0 6 -5 10.5t-12 4.5v0zM525 251q0 47 -33.5 80.5
t-80.5 33.5t-80.5 -33.5t-33.5 -80t33.5 -80t80.5 -33.5t80.5 33.5t33.5 79.5v0zM719 365h-248q23 -13 39 -32h209q7 0 12 4.5t5 11.5t-5 11.5t-12 4.5v0zM719 268h-182q1 -5 1 -17q0 -10 -1 -16h182q7 0 12 4.5t5 11.5t-5 12t-12 5v0zM719 414h-260q-7 0 -12 -5t-5 -12
t5 -11.5t12 -4.5h260q7 0 12 4.5t5 11.5t-5 12t-12 5v0zM719 317h-199q9 -14 14 -32h185q7 0 12 4.5t5 11.5t-5 11.5t-12 4.5v0zM102 370q40 -18 55 -19q14 -1 18 20q21 91 83.5 159.5t150.5 97t177 7.5q83 -20 146 -77t93 -136q-64 -8 -75 -10q-9 -1 -10.5 -9t6.5 -16
q7 -7 83.5 -47.5t95.5 -40.5v0q28 0 25 35q-11 144 -104.5 256.5t-236.5 145.5q-114 27 -226 -10.5t-191.5 -125.5t-102.5 -204q-2 -17 -0.5 -18.5t13.5 -7.5v0zM933 228q-38 10 -67 20q-16 6 -20 -15l-2 -12q-21 -91 -83.5 -158t-149 -94t-176.5 -6q-79 19 -140 72t-93 127
q52 4 69 6q13 1 15 12.5t-10 18.5v0q-11 7 -78.5 46t-81.5 46q-17 10 -31.5 3t-12.5 -30q11 -144 104.5 -256t236.5 -146q116 -27 228 8.5t192.5 122.5t106.5 206q2 6 2 9q2 9 0.5 13.5t-9.5 6.5v0zM377 257q0 -27 -2 -37q-3 -12 -11 -23q-3 3 -6 7q7 10 9 20q1 9 1 31v41
h90v-84q0 -14 -13 -14h-17q0 3 -2 9q11 -1 16 -1q8 0 8 7v75h-73v-31zM382 258h27v11h-22v7h22v9h8v-9h22v-7h-22v-11h27v-7h-62v7zM391 242h45v-28h-37v-7h-8v35zM428 221v14h-29v-14h29z" />
    <glyph glyph-name="liangxieya" unicode="&#xe619;" 
d="M773 531h56.5h56.5q37 -1 62 -26t25 -62v-218q0 -36 -25 -61t-62 -26h-37q-5 0 -6 -5q-5 -171 -170 -266q-104 -61 -222 -56q-168 7 -275 131q-43 50 -48 111q-6 76 46 126q7 7 5 17q-16 80 -16 179v14.5v17v14.5q0 5 -6 5q-12 1 -16 5t-3 16q2 24 -21 36
q-40 21 -56.5 63.5t-3.5 86.5q13 43 50.5 69t81.5 23t77.5 -33t41.5 -73q8 -44 -12.5 -84t-62.5 -58q-10 -5 -9 -14v-22q0 -13 -13 -15q-5 0 -5 -5q-1 -129 13 -201q0 -4 0.5 -4.5t5.5 0.5q26 15 103 46q41 17 58 39q2 3 6 1q25 -15 28 -16q6 -3 2 -9q-18 -25 -50 -42
q-10 -6 -21.5 -11t-26.5 -10.5t-23 -8.5q-40 -18 -65 -33q-6 -4 -4 -10q20 -68 52 -112q70 -97 185 -95q91 1 161 36q65 31 95 83q16 27 20 58q0 6 -5 6q-33 4 -34 39q0 11 -1.5 13t-13.5 2h-36.5h-36.5q-27 0 -45 18t-18 45v34.5v34.5q0 7 5 11q57 41 78 109q3 8 12 7h85.5
h62.5q17 0 27.5 -10t10.5 -27q0 -15 2.5 -17.5t17.5 -2.5h30q19 0 31.5 13t12.5 34q0 20 -12.5 33t-31.5 13q-129 1 -229 0q-5 0 -7.5 2t-1.5 7q2 12 -1 28q-1 4 0 5.5t6 1.5h120zM459 305q4 3 10 14q11 22 33 29q45 12 78 64q38 58 28 112q-5 33 7 49q8 10 -5 19
q-23 13 -45 25q-11 6 -18 -5q-4 -5 -6 -9q-7 -16 -21 -17q-3 0 -10 -3q-68 -28 -97 -110q-14 -40 -5 -69q7 -26 -9 -48q-1 -1 -3 -4q-8 -15 6 -23q2 -1 41 -23q4 -3 9 -3q4 1 7 2zM188 126q-26 -41 -13 -91q15 -57 71 -102q120 -97 269 -75q112 16 191 83q91 78 94 189l1 2
q1 6 -5 6q-8 1 -8 -8q-2 -23 -11 -46q-29 -78 -112 -124q-97 -53 -218 -48q-95 4 -165 73q-42 42 -69 102q-1 3 -19 48q-6 -8 -6 -9zM267 594q1 36 -24.5 61.5t-61.5 26.5q-35 0 -60.5 -25.5t-25.5 -60.5q-1 -36 24 -61.5t61 -25.5t61.5 25t25.5 60zM871 350q-35 1 -79 0
q-18 0 -30 -12t-12 -30v-60t-1 -60q0 -8 8 -6q11 1 18 9.5t7 19.5v91q0 11 4 15.5t16 4.5h76q10 0 19 2q31 6 32 38q-20 -12 -58 -12zM182 624q-19 0 -33 15q-1 2 -3.5 4.5l-3.5 3.5q-4 4 -8 2q-5 -3 -6 -8q-1 -3 4 -8q21 -18 21 -41q-1 -11 8.5 -18.5t21 -7t19.5 9t8 20.5
q0 11 -8 19.5t-20 8.5z" />
    <glyph glyph-name="qrcode" unicode="&#xe612;" 
d="M320 832h-256v-256h256v256zM384 896v0v-384h-384v384h384zM128 768h128v-128h-128v128zM960 832h-256v-256h256v256zM1024 896v0v-384h-384v384h384zM768 768h128v-128h-128v128zM320 192h-256v-256h256v256zM384 256v0v-384h-384v384h384zM128 128h128v-128h-128v128z
M448 896h64v-64h-64v64zM512 832h64v-64h-64v64zM448 768h64v-64h-64v64zM512 704h64v-64h-64v64zM448 640h64v-64h-64v64zM512 576h64v-64h-64v64zM448 512h64v-64h-64v64zM448 384h64v-64h-64v64zM512 320h64v-64h-64v64zM448 256h64v-64h-64v64zM512 192h64v-64h-64v64z
M448 128h64v-64h-64v64zM512 64h64v-64h-64v64zM448 0h64v-64h-64v64zM512 -64h64v-64h-64v64zM960 384h64v-64h-64v64zM64 384h64v-64h-64v64zM128 448h64v-64h-64v64zM0 448h64v-64h-64v64zM256 448h64v-64h-64v64zM320 384h64v-64h-64v64zM384 448h64v-64h-64v64z
M576 384h64v-64h-64v64zM640 448h64v-64h-64v64zM704 384h64v-64h-64v64zM768 448h64v-64h-64v64zM832 384h64v-64h-64v64zM896 448h64v-64h-64v64zM960 256h64v-64h-64v64zM576 256h64v-64h-64v64zM640 320h64v-64h-64v64zM704 256h64v-64h-64v64zM832 256h64v-64h-64v64z
M896 320h64v-64h-64v64zM960 128h64v-64h-64v64zM576 128h64v-64h-64v64zM640 192h64v-64h-64v64zM768 192h64v-64h-64v64zM832 128h64v-64h-64v64zM896 192h64v-64h-64v64zM960 0h64v-64h-64v64zM640 64h64v-64h-64v64zM704 0h64v-64h-64v64zM768 64h64v-64h-64v64zM832 0
h64v-64h-64v64zM640 -64h64v-64h-64v64zM768 -64h64v-64h-64v64zM896 -64h64v-64h-64v64z" />
    <glyph glyph-name="shiyongzhinan" unicode="&#xe606;" 
d="M932 529v0q-1 1 -2 1.5l-1 0.5l-221 154q-11 8 -26 8q-9 0 -19 -4l-285 -145l-201 141q-12 8 -26 8q-18 0 -30 -11.5t-12 -26.5v-520q0 -22 19 -33l221 -154q10 -8 25 -8q12 0 21 5l283 144l203 -141q12 -8 23 -8q18 0 30 11.5t12 27.5v520q2 16 -14 30v0zM518 84
q-18 0 -30.5 13t-12.5 31.5t12.5 31.5t30.5 13t31 -13t13 -31.5t-13 -31.5t-31 -13v0zM640 365q-9 -17 -21 -30q-12 -12 -45 -42q-10 -10 -14 -15q-6 -7 -8 -12q-2 -4 -4 -10q-2 -5 -4 -19q-5 -28 -31 -28q-14 0 -23.5 9t-9.5 27q0 23 7 39.5t18 29.5q12 14 31 30
q18 17 24 23q7 7 12 17q5 9 5 21q0 21 -15.5 36t-39.5 15q-29 0 -43 -15t-23 -44q-8 -31 -33 -31q-15 0 -25 11t-10 23q0 26 16 52q16 27 46.5 44.5t71.5 17.5q38 0 67 -15t44 -39q16 -25 16 -54q0 -24 -9 -41v0z" />
    <glyph glyph-name="shequ" unicode="&#xe61c;" 
d="M175 -29v363h47v-316h580v316h48v-363h-675zM338 283q-31 37 -31 84q0 52 37 89.5t89 37.5q43 0 77 -26l2 -2l2 2q34 26 77 26q52 0 89 -37.5t37 -89.5q0 -47 -29 -82l-109 -99l-34 33l109 99v0q16 20 16 49q0 33 -23 56t-56 23q-37 0 -61 -28l-18 -21l-18 21
q-23 28 -61 28q-33 0 -56 -23t-23 -56q0 -29 18 -52h1l165 -153l-32 -35zM512 788l-409 -436l-34 32l443 473l443 -473l-34 -32z" />
    <glyph glyph-name="peixun" unicode="&#xe610;" 
d="M172 607h680v-371h-680v371zM967 736h-910q-14 0 -24.5 -10t-10.5 -25v-560q0 -14 10 -24.5t25 -10.5h910q14 0 24.5 10.5t10.5 24.5v560q0 15 -10.5 25t-24.5 10zM932 176h-840v490h840v-490zM127 -104h70l62 175h-69zM544 876h-64l-38 -105h140zM765 71l62 -175h70
l-63 175h-69zM477 71h70v-105h-70v105z" />
    <glyph glyph-name="tijianbaogao" unicode="&#xe60b;" 
d="M817 -63h-624q-28 0 -46.5 22.5t-18.5 53.5v733q0 33 20.5 59t48.5 26h484q99 -88 215 -202v-617q0 -30 -23 -52.5t-56 -22.5zM211 673v-591q0 -24 16.5 -42.5t36.5 -18.5h484q24 0 44.5 19t20.5 42v499h-108q-25 0 -42 17t-17 43v106h-378q-26 0 -41.5 -20t-15.5 -54z
M505 540h-65v-66q0 -7 -5 -12t-12 -5h-29q-7 0 -12 5t-5 12v66h-67q-7 0 -12 5t-5 12v29q0 7 5 12t12 5h67v65q0 7 5 12t12 5h29q7 0 12 -5t5 -12v-65h65q7 0 12 -5t5 -12v-29q0 -7 -5 -12t-12 -5zM308 353h402q8 0 14 -5t6 -13v-26q0 -8 -6 -13t-14 -5h-402q-8 0 -14 5
t-6 13v26q0 8 6 13t14 5zM308 207h401q9 0 15 -5t6 -13v-26q0 -8 -6 -13t-15 -5h-401q-8 0 -14 5t-6 13v26q0 8 6 13t14 5z" />
    <glyph glyph-name="password" unicode="&#xe697;" 
d="M731 -128h-438q-121 0 -207 81t-86 195v276q0 58 41 98t101 40l5 69q0 69 28 121t79 83t115.5 46t142.5 15t142.5 -15t115.5 -46t79 -83t28 -121l4 -69q60 0 101.5 -40t41.5 -98v-276q0 -114 -86 -195t-207 -81v0zM439 167v-88q0 -28 21.5 -48.5t51.5 -20.5t51.5 20.5
t21.5 48.5v88q33 19 53 50.5t20 68.5q0 57 -42.5 97.5t-103.5 40.5t-103.5 -40.5t-42.5 -97.5q0 -37 20 -68.5t53 -50.5v0zM512 767q-50 0 -86 -5.5t-68 -19.5t-48.5 -42t-16.5 -69q0 -46 8 -69h420q10 27 10 69q0 41 -16.5 69t-48.5 42t-68 19.5t-86 5.5v0zM512 767z" />
    <glyph glyph-name="comiisdazhaohu" unicode="&#xe61a;" 
d="M515 226q20 0 76 52.5t71 100.5q5 17 6.5 34.5t-1 38.5t-17 36t-40.5 18q-20 3 -37.5 -2.5t-27.5 -15.5t-17 -20.5t-10 -18.5l-3 -8q-1 2 -2 5t-6 12t-11 15.5t-15 16t-19.5 13.5t-24 7t-27.5 -4q-83 -25 -50 -127q16 -48 75.5 -100.5t79.5 -52.5zM880 130q79 115 79 254
q0 91 -35.5 173.5t-95 142.5t-142.5 95.5t-174 35.5t-174 -35.5t-142.5 -95.5t-95 -142.5t-35.5 -173.5t35.5 -173.5t95 -142.5t142.5 -95.5t174 -35.5q109 0 207 51l165 -50q19 -5 33 9t8 33zM712 26q-93 -53 -200 -53q-111 0 -205 55t-149 150t-55 206t55 206t149 150
t205 55t205 -55t149 -150t55 -206q0 -134 -82 -244q-6 -8 0 -29l43 -131l-140 46q-19 6 -30 0z" />
    <glyph glyph-name="filter" unicode="&#xe62a;" horiz-adv-x="1094" 
d="M623 292h471v-53h-471v53zM623 109h471v-54h-471v54zM623 -74h471v-54h-471v54zM490 292h54v-53h-54v53zM490 109h54v-54h-54v54zM490 -74h54v-54h-54v54zM831 896h-758q-3 -1 -8 -2t-17 -7t-21.5 -13.5t-17 -22.5t-7.5 -33t11 -45.5t34 -59.5l316 -316l26 -525h53
l-31 553l-11.5 11.5t-30.5 30t-45.5 44.5t-53 53t-56.5 58t-53 56t-46 51t-31.5 39t-13.5 24q-2 2 -4 5.5t-3.5 13t2 16.5t18.5 12.5t40 5.5h654q3 0 7 -1t13 -5.5t13.5 -10t3.5 -15.5t-11 -21q-17 -17 -96 -108.5t-150 -175.5l-70 -83v-79h53v54l291 338q3 3 7 7.5t14 18.5
t17.5 27.5t12 30.5t2.5 30.5t-15 25.5t-38 18z" />
    <glyph glyph-name="zhanghao" unicode="&#xe8f0;" 
d="M811 768h-43v85h-85v-85h-342v85h-85v-85h-43q-35 0 -60 -25t-25 -60v-598q0 -35 25 -60t60 -25h598q35 0 60 25t25 60v598q0 35 -25 60t-60 25zM512 640q53 0 90.5 -37.5t37.5 -90.5t-37.5 -90.5t-90.5 -37.5t-90.5 37.5t-37.5 90.5t37.5 90.5t90.5 37.5zM768 128h-512
v43q0 30 27.5 56t68.5 42t83.5 25t76.5 9t76.5 -9t83.5 -25t68.5 -42t27.5 -56v-43z" />
    <glyph glyph-name="xieya" unicode="&#xe609;" 
d="M502.5 -128q-87.5 0 -162 44t-117.5 119.5t-43 165.5q0 71 28.5 134t79.5 109v233q0 91 62.5 155t152 64t152 -64t62.5 -155v-233q51 -46 79.5 -109t28.5 -134q0 -90 -43 -165.5t-117.5 -119.5t-162 -44zM646 363l-36 32v49v233q0 45 -31.5 77t-76 32t-76 -32t-31.5 -77
v-233v-49l-36 -32q-71 -66 -71 -162q0 -91 63 -155.5t151.5 -64.5t151.5 64.5t63 155.5q0 96 -71 162zM502.5 14q-75.5 0 -129 55t-53.5 132q0 81 61 137l46 43v63v127l151 -39v-88v-63l46 -43q61 -56 61 -137q0 -77 -53.5 -132t-129 -55zM787 782h19q16 0 27 -11t11 -26.5
t-11 -27t-27 -11.5h-19q-16 0 -27 11.5t-11 27t11 26.5t27 11zM787 668h19q16 0 27 -11t11 -26.5t-11 -26.5t-27 -11h-19q-16 0 -27 11t-11 26.5t11 26.5t27 11zM787 555h19q16 0 27 -11.5t11 -27t-11 -26.5t-27 -11h-19q-16 0 -27 11t-11 26.5t11 27t27 11.5z" />
    <glyph glyph-name="liebiao2" unicode="&#xe637;" 
d="M222 310h583q15 0 25.5 10.5t10.5 25.5t-10.5 26t-25.5 11h-583q-15 0 -26 -11t-11 -26t11 -25.5t26 -10.5zM222 92h583q15 0 25.5 10.5t10.5 25.5t-10.5 25.5t-25.5 10.5h-583q-15 0 -26 -10.5t-11 -25.5t11 -25.5t26 -10.5zM439 748h182q15 0 26 10.5t11 26t-11 26
t-26 10.5h-182q-15 0 -25.5 -10.5t-10.5 -26t10.5 -26t25.5 -10.5zM893 821h-53q-15 0 -26 -10.5t-11 -26t11 -26t26 -10.5h53q6 0 12.5 -10.5t6.5 -25.5v-110h-800v110q0 15 10 25.5t25 10.5h74q15 0 25.5 10.5t10.5 26t-10.5 26t-25.5 10.5h-74q-45 0 -76.5 -32t-31.5 -77
v-728q0 -46 32 -78t77 -32h728q45 0 77 32t32 78v728q0 45 -27 77t-65 32zM912 -16q0 -16 -10.5 -26.5t-25.5 -10.5h-728q-15 0 -25.5 10.5t-10.5 26.5v546h800v-546zM730.5 712q15.5 0 26 10.5t10.5 25.5v109q0 15 -10.5 26t-26 11t-26 -11t-10.5 -26v-109
q0 -15 10.5 -25.5t26 -10.5zM330 712q15 0 25.5 10.5t10.5 25.5v109q0 15 -10.5 26t-25.5 11t-25.5 -11t-10.5 -26v-109q0 -15 10.5 -25.5t25.5 -10.5z" />
    <glyph glyph-name="diagnosis" unicode="&#xe60c;" 
d="M811 432q-61 0 -105.5 -44.5t-44.5 -104.5q0 -43 24.5 -79.5t63.5 -55.5q-19 -51 -63 -82.5t-99 -31.5q-64 0 -111.5 40.5t-58.5 101.5q32 45 42 88q51 33 92.5 100t64 134t34 117t11.5 66q0 24 -24.5 61.5t-49.5 62.5l-25 26h-35q-27 5 -51.5 -8.5t-33.5 -40.5
q-10 -30 3 -57.5t42 -38.5q12 -4 25 -4v-1h50q-1 -17 -7.5 -54t-22.5 -88t-37.5 -96.5t-56.5 -77.5t-75 -32q-23 0 -44.5 12t-38.5 32t-32.5 46t-27 55t-21 58t-16 55t-11 46t-6.5 32l-2 12h32q22 -5 44 4t34 30q17 26 10 56.5t-33 47.5q-17 11 -38 11v1h-49q-4 -4 -11 -10
t-24 -23t-30 -33t-24 -36t-11 -35q0 -12 7 -47.5t23.5 -90.5t39 -109t58.5 -105.5t78 -78.5q20 -57 48 -96q16 -99 91.5 -165.5t177.5 -66.5q94 0 167 57.5t96 147.5q47 13 78.5 53.5t31.5 89.5q0 60 -44 104.5t-105 44.5zM810.5 233q-20.5 0 -35 14.5t-14.5 35.5t14.5 35.5
t35 14.5t35 -14.5t14.5 -35.5t-14.5 -35.5t-35 -14.5z" />
    <glyph glyph-name="me" unicode="&#xe61d;" 
d="M665 229.5q0 -7.5 5.5 -13.5t13.5 -6h258q8 0 13.5 6t5.5 13.5t-5.5 13t-13.5 5.5h-258q-8 0 -13.5 -5.5t-5.5 -13zM942 155h-258q-8 0 -13.5 -6t-5.5 -13.5t5.5 -13t13.5 -5.5h258q8 0 13.5 5.5t5.5 13t-5.5 13.5t-13.5 6zM942 48h-258q-8 0 -13.5 -5.5t-5.5 -13
t5.5 -13t13.5 -5.5h258q8 0 13.5 5.5t5.5 13t-5.5 13t-13.5 5.5zM598 -29h-368q-62 9 -94 34q-22 17 -30 41q-8 23 -4 52q10 67 72 148q21 28 47 51.5t46.5 37t42 24.5t30.5 14l15 5l26 5h4q58 -35 127 -35q56 0 106 24q38 -11 73 -27q35 -17 65 -40q7 -5 14.5 -4t12.5 7.5
t3.5 14t-7.5 12.5q-33 25 -72 44q-22 10 -47 19q13 10 24 21q72 71 72 172t-71.5 172.5t-172.5 71.5t-172.5 -71.5t-71.5 -172.5t72 -172l5 -5q-12 -3 -28 -10t-46.5 -23.5t-64.5 -46t-62 -66.5q-68 -88 -79 -164q-6 -39 5 -70q12 -35 43 -59q41 -31 112 -42h4h369
q8 0 13.5 5.5t5.5 13.5t-5.5 13.5t-13.5 5.5zM306 591.5q0 85.5 60.5 145.5t145.5 60t145.5 -60t60.5 -145.5t-60.5 -146t-145.5 -60.5t-145.5 60.5t-60.5 146z" />
    <glyph glyph-name="jiezhongmenzhen" unicode="&#xe611;" 
d="M414 624h197q24 0 41.5 17.5t17.5 41.5v79q0 24 -17.5 41.5t-41.5 17.5h-197q-25 0 -42 -17.5t-17 -41.5v-79q0 -24 17 -41.5t42 -17.5zM414 742q0 8 5.5 14t14.5 6h157q8 0 14 -6t6 -14v-13v-26q0 -8 -6 -14t-14 -6h-157q-9 0 -14.5 6t-5.5 14v39zM822 741h-106h-7v-59
h7h106q5 0 5 -2v-670q-1 -3 -5 -3h-603q-8 0 -14 6t-6 14v636q0 8 6 13.5t14 5.5h97v59h-119q-24 0 -41.5 -17.5t-17.5 -41.5v-672q0 -26 19 -44t45 -18h620q27 0 45.5 18t18.5 44v670q0 25 -18.5 43t-45.5 18zM296 70q0 -12 9 -21t21 -9t20.5 9t8.5 21v137q0 13 9 21.5
t21 8.5h255q12 0 20.5 -8.5t8.5 -21.5v-137q0 -12 9 -21t21 -9t20.5 9t8.5 21v137q0 37 -26 63t-62 26h-8v41q0 49 -35 85q-23 23 -55 31v60q0 13 -8.5 21.5t-21 8.5t-21 -8.5t-8.5 -21.5v-60q-32 -8 -56 -31q-35 -36 -35 -85v-41h-7q-37 0 -63 -26t-26 -63v-137zM451 337
q0 25 18 43t43 18v0q25 0 43 -18t18 -43v-41h-122v41z" />
    <glyph glyph-name="yuyueguahao2" unicode="&#xe60e;" 
d="M866 738h-127v-59h108q8 0 13.5 -6t5.5 -14v-109h-708v109q0 8 5.5 14t13.5 6h110v59h-129q-25 0 -42 -17.5t-17 -41.5v-649q0 -25 17 -42t42 -17h708q25 0 42 17t17 42v649q0 24 -17 41.5t-42 17.5zM847 30h-670q-8 0 -13.5 5.5t-5.5 13.5v442h708v-442q0 -8 -5.5 -13.5
t-13.5 -5.5zM404 738h216v-59h-216v59zM693 398l-225 -225l-126 127q-9 9 -21.5 9t-21 -9t-8.5 -21t9 -21l147 -147q9 -9 21 -9t21 9l246 246q8 8 8 20.5t-8.5 21t-20.5 8.5t-21 -9zM346 620v0q12 0 21 9t9 21v118q0 12 -9 20.5t-21 8.5v0q-12 0 -20.5 -8.5t-8.5 -20.5v-118
q0 -12 8.5 -21t20.5 -9zM679 620h1q12 0 20.5 9t8.5 21v118q0 12 -8.5 20.5t-20.5 8.5h-1q-12 0 -20.5 -8.5t-8.5 -20.5v-118q0 -12 8.5 -21t20.5 -9z" />
    <glyph glyph-name="yanglao-copy" unicode="&#xe616;" 
d="M660 641q-19 -41 -52 -63t-66 -21.5t-63.5 21.5t-44.5 59q-48 -14 -81 -41t-48.5 -60t-21.5 -60.5t-6 -56.5q-17 -4 -29 -15t-16 -24t-5 -22t-1 -14q1 -6 11 -8.5t16 5.5q2 4 3.5 15.5t6.5 20.5t17 12q7 -18 25 -18q9 0 17 5q5 -8 7 -18.5t2 -17.5l-1 -7v-381
q0 -9 8 -12.5t16 -0.5t9 13v381q0 6 -0.5 14.5t-7 28.5t-19.5 31q2 60 30 99t62 48q6 -7 7 -47t-2 -77l-2 -36q-3 -9 -8.5 -24t-17 -62t-17 -94t-3 -113.5t18.5 -127.5q2 -11 13.5 -21.5t27 -15t32.5 6t28 38.5q-16 67 -18 126t5.5 93t21.5 61.5t20 34.5t10 11v0
q4 -2 9 -7.5t17 -29.5t18.5 -57t6 -95.5t-12.5 -139.5q7 -29 27 -37.5t40.5 0t32.5 27.5q36 271 -20 399l-13 23q-6 141 8 159q3 1 12 -6.5t21 -25t22.5 -42t16 -64.5t2.5 -86q0 -3 2 -7.5t9 -9.5t18 -4.5t19 7t10 13.5l2 6q1 4 2 12t2 32t-1 47.5t-10.5 55.5t-22.5 59.5
t-40 56t-61 48.5zM543.5 582q39.5 0 67.5 30.5t28 73.5t-28 73.5t-67.5 30.5t-67.5 -30.5t-28 -73.5t28 -73.5t67.5 -30.5z" />
    <glyph glyph-name="sousuo" unicode="&#xe65a;" 
d="M103 203h325q-52 38 -88 89h-237q-17 0 -29 -11.5t-12 -28.5v-8q0 -17 12 -29t29 -12v0zM832 193q-6 15 -21.5 21.5t-30.5 0.5l-10 -3q-16 -6 -23 -20.5t-1 -29.5l71 -181q5 -15 20.5 -22t30.5 -1l10 3q16 6 23 20.5t1 29.5l-71 182h1zM663 55h-560q-17 0 -29 -12
t-12 -29v-7q0 -17 12 -29t29 -12h560q17 0 29 12t12 29v7q0 17 -12 29t-29 12v0zM358 465q8 -47 29 -89q24 -45 62 -81q50 -46 114 -67q120 -39 233 18q55 27 94.5 73.5t57 100.5t13.5 114.5t-32 114.5q-49 94 -144.5 136.5t-196.5 19.5q-37 -9 -68 -25q-45 -22 -80 -59
q-71 -72 -84 -172q-5 -42 2 -84zM658 740q95 0 162.5 -66.5t67.5 -160.5t-67.5 -161t-162.5 -67t-162.5 67t-67.5 161t67.5 160.5t162.5 66.5zM106 537q-18 0 -31 -13t-13 -31v-8q0 -18 13 -31t31 -13h170q-7 37 -7 72q0 6 1 24h-164v0zM103 700h215q28 49 70 89h-285
q-17 0 -29 -12t-12 -29v-7q0 -17 12 -29t29 -12v0z" />
    <glyph glyph-name="icon3" unicode="&#xe62b;" 
d="M247 615q-54 2 -92 -10v-496q36 7 73 7.5t80 -5t70.5 -10.5t77.5 -16l16 -3v69q19 -7 38 -7q21 0 39 8v-70l16 3q50 11 78 16t71 10.5t80 5t72 -7.5v496q-40 13 -99 10q2 17 2 33q72 3 120 -16l11 -5v-11v-45l59 -12v-560q-5 1 -30.5 5t-33.5 5t-32.5 4t-37.5 3t-38.5 1
t-46.5 -0.5t-49.5 -4t-59.5 -7t-66 -11.5v-18q-50 -13 -54.5 -13t-54.5 13v18q-34 7 -65 11.5t-59.5 7t-49.5 4t-46.5 0.5t-39 -1t-38 -3t-32 -4t-33 -5t-30.5 -5v560l59 12v45v11l10 5q46 18 114 17q-1 -17 1 -34v0zM397 395l28 -128h43q3 -14 15 -23.5t27.5 -9.5t27.5 9.5
t14 23.5h39l30 128h-224v0zM464 431l20 4l-31 135q5 3 10 3q9 0 20 -7l7 -4l6 6q6 7 14 6q7 0 17 -7l6 -5l6 5q12 9 26 3l-29 -137l19 -4l32 144l1 7l-6 4q-27 16 -49 3q-12 7 -23 7q-12 1 -23 -7q-12 6 -24 6q-15 0 -27 -10l-6 -4l2 -6l32 -142v0zM390 428h54
q-6 47 -43 123l-18 39t-10 32t-1 33q12 57 64 83q33 17 73 16t73 -18q51 -27 61 -80q2 -14 -2 -33t-10 -32.5t-18 -39.5q-36 -77 -43 -123h55q7 36 37 101q14 30 21 47t12 42.5t1 46.5q-14 79 -89 119q-45 23 -97 24q-53 1 -98 -21q-76 -38 -93 -121q-2 -11 -2.5 -22.5
t2 -24t5 -22t8 -23.5t9.5 -22.5t11 -23.5q31 -64 38 -100v0zM751 554q-4 -9 -9 -21q58 6 91 -3v21q-33 7 -82 3v0zM645 194l-5 -22q51 11 86 15q69 9 107 -1v20q-41 10 -110 1q-33 -4 -78 -13v0zM658 248l-5 -21q42 8 73 12q70 9 107 -1v20q-41 10 -110 1q-29 -4 -65 -11v0z
M698 434q0 -1 -0.5 -2.5t-0.5 -2.5h3l-4 -16q16 3 30 5q70 8 107 -2v21q-41 9 -110 1q-12 -2 -25 -4v0zM724 494q-8 -17 -10 -21q6 1 12 1q70 9 107 -1v20q-40 10 -109 1v0zM263 555q-45 3 -75 -4v-21q31 9 83 4q-4 10 -8 21v0zM370 195q-41 8 -72 12q-69 9 -110 -1v-20
q38 10 107 1q33 -4 79 -13l-4 21v0zM359 249q-35 7 -61 10q-69 9 -110 -1v-20q38 10 107 1q30 -3 68 -11l-4 21v0zM316 435q-10 2 -18 3q-69 8 -110 -1v-21q38 10 107 2q13 -2 27 -4q-2 11 -6 21v0zM289 495q-63 7 -101 -2v-20q38 10 107 1h4q-5 10 -9 19z" />
    <glyph glyph-name="imgicon" unicode="&#xe655;" 
d="M836 807h-647q-70 0 -120 -50t-50 -121v-502q0 -70 50 -120t120 -50h647q70 0 120 50t50 120v502q0 71 -50 121t-120 50zM189 750h647q46 0 79.5 -33.5t33.5 -80.5v-419l-180 265q-8 12 -21 13t-23 -9l-278 -283l-181 166q-9 8 -21 7t-20 -10l-149 -173v443
q0 47 33.5 80.5t79.5 33.5zM836 20h-647q-40 0 -71.5 26t-39.5 65q5 4 6 4l165 192l180 -164q9 -8 20.5 -7.5t19.5 8.5l273 278l194 -286q4 -6 12 -10q-3 -44 -35.5 -75t-76.5 -31zM310.5 453q25.5 0 43.5 18t18 44t-18 44t-43.5 18t-44 -18t-18.5 -44t18.5 -44t44 -18z" />
    <glyph glyph-name="jijin" unicode="&#xe6e3;" 
d="M509.5 -118q-101.5 0 -194.5 39q-89 38 -158.5 107t-106.5 158q-40 93 -40 194.5t40 194.5q37 89 106.5 158t158.5 107q93 39 194.5 39t193.5 -39q90 -38 159 -107t107 -158q39 -93 39 -194.5t-39 -194.5q-38 -89 -107 -158t-159 -107q-92 -39 -193.5 -39zM509.5 856
q-96.5 0 -184.5 -37.5t-152 -101.5t-101.5 -152t-37.5 -184.5t37.5 -184.5t101.5 -152t152 -101.5t184.5 -37.5t184.5 37.5t151.5 101.5t101.5 152t38 184.5t-38 184.5t-101.5 152t-151.5 101.5t-184.5 37.5zM799 460l-36 -4q-6 -1 -8.5 -6.5t1.5 -10.5l3 -5l-258 -191
l-43 53q-8 10 -17 2q-12 -8 -116 -78.5t-111 -75.5q-10 -5 -7 -15q4 -12 17 -8q1 0 47.5 31t101.5 68t73 50l42 -53q4 -4 10 -4q5 0 8 2l268 198l3 -3q3 -5 9 -5h1q6 1 8 7l15 33q2 5 -1.5 10t-9.5 5zM596 593q4 9 4 11q-1 12 -12 13q-11 0 -17 -10l-64 -96l-64 96
q-5 10 -16 10q-12 -1 -13 -13q1 -5 4 -11q2 -1 2 -2l57 -88h-34q-15 0 -15 -12q1 -10 15 -12h49v-25h-49q-15 0 -15 -12q1 -10 15 -11h49v-56q0 -14 15 -14t15 14v56h49q14 1 15 11q0 12 -15 12h-49v25h49q14 2 15 12q0 12 -15 12h-33l57 88q0 1 1 2z" />
    <glyph glyph-name="icon" unicode="&#xe617;" 
d="M510 835q-91 0 -174 -35.5t-143.5 -96t-96 -144.5t-35.5 -175.5t35.5 -175t96 -144t143.5 -96.5t174.5 -36t174.5 36t143.5 96.5t96 144t35.5 175t-35.5 175.5t-96 144.5t-143.5 96t-175 35.5v0zM510 -22q-109 0 -202 54.5t-147 148t-54 203.5t54 203t147 147.5
t202.5 54.5t202.5 -54.5t147 -147.5t54 -203t-54 -203.5t-147 -148t-203 -54.5v0zM405 589q1 10 -4.5 17.5t-15 9t-17 -4t-8.5 -15.5q-2 -10 -7 -29t-32 -74.5t-68 -110.5q-6 -8 -4.5 -17.5t8.5 -15.5q6 -4 14 -4q12 0 18 9q12 15 23 31v-199q0 -9 6.5 -16t16 -7t16.5 7
t7 16v276q40 77 47 127v0zM711 448q9 0 16 7t7 16.5t-7 16t-16 6.5h-168q3 57 0 100q0 10 -7 16t-17 6q-9 -1 -15.5 -8t-5.5 -17q2 -39 -1 -97h-78q-9 0 -16 -6.5t-7 -16t7 -16.5t16 -7h74q-20 -173 -95 -237q-8 -6 -8.5 -15.5t5.5 -17.5q7 -8 17 -8q9 0 15 6q91 76 112 272
h172v0v0zM718 317q-9 0 -16 -6.5t-7 -16.5v-53q0 -8 -8.5 -16t-15.5 -8h-45q-13 0 -21 8q-6 5 -5 17v168q0 9 -6.5 16t-16.5 7v0q-10 0 -16.5 -7t-6.5 -16v-167q-1 -31 19 -51q20 -21 53 -21h45q25 0 47.5 21t22.5 49v53q0 10 -6.5 16.5t-16.5 6.5v0zM595 555l55 -24
q4 -2 9 -2q15 0 21 14q4 9 0.5 18t-12.5 13l-55 24q-8 3 -17 -0.5t-13 -12t-0.5 -17.5t12.5 -13v0zM595 555z" />
    <glyph glyph-name="xindian" unicode="&#xe613;" 
d="M662 778q-82 0 -150 -47q-68 47 -150 47q-110 0 -187 -77t-77 -187q0 -39 11 -76h205l67 97l18 -173l136 269l64 -193h96v0q8 0 12.5 -5.5t4.5 -12.5t-4.5 -12.5t-11.5 -5.5v0l-123 -1l-45 135l-154 -303l-19 199l-21 -31h-211q23 -49 65 -85l322 -322v-4l2 1l2 -1v4
l322 322q43 37 66.5 88.5t23.5 109.5q0 110 -77 187t-187 77z" />
    <glyph glyph-name="haocaiguanli" unicode="&#xe6ec;" 
d="M692 628q-21 0 -42 -12q-19 12 -45 12t-48 -14q-21 13 -46 13q-23 0 -44 -12q-20 12 -45 12t-45 -13q-22 13 -45 13q-56 0 -100 -67v207q0 9 -6.5 16t-15.5 7t-16 -7t-7 -16v-359q-1 -12 -1 -33q0 -107 42 -180t104 -73q25 0 45 12q21 -12 45 -12q23 0 44 11
q22 -11 45 -11q26 0 48 13q22 -12 46 -12q21 0 42 11q20 -11 45 -11q59 0 101 68v-188q0 -9 6.5 -15.5t15.5 -6.5t16 6.5t7 15.5v213v165v4q-3 103 -45 173t-101 70zM332 166q-38 0 -69.5 60t-31.5 148v6q1 2 1 6v17q6 78 35.5 128.5t64.5 50.5q4 0 6 -1q-28 -35 -45 -89.5
t-17 -117.5q0 -64 16.5 -118.5t45.5 -88.5q-2 -1 -6 -1zM422 166q-38 0 -69 60t-31 148q0 60 15 108t40 75l1 1l3 3l4 4q1 1 3 2.5t2.5 2t2 1.5l1.5 1q2 2 6 5q1 0 2 0.5t1 1.5q5 2 9 4h1l4 1q1 0 3 0.5t3 0.5q4 0 4 -1q-28 -35 -44.5 -89.5t-16.5 -118.5t16.5 -118.5
t44.5 -89.5q-1 -2 -5 -2zM511 166q-38 0 -69 60t-31 148q0 60 15.5 108.5t40.5 75.5l1 1l6 6l1 1l1 1q4 4 6 4q1 1 2.5 2l1.5 1l2 2l2 1l7 3q2 0 5 1t5 2l4 1q5 0 8 -1q-28 -35 -44 -89t-16 -117q1 -135 62 -209q-4 -2 -10 -2zM605 167q-38 0 -69 60t-31 148q0 59 14.5 106
t38.5 75q7 8 13 13q4 2 4 4q1 1 2.5 2t2.5 2q4 2 5 3l1 0.5t2 0.5q4 2 6 2q4 1 10 1h4q-29 -35 -45.5 -90.5t-16.5 -119.5q0 -131 59 -207v0zM692 166q-3 0 -4 1l1 1q-18 1 -41 22l-1 -1q-24 27 -40 76t-16 109q1 88 32.5 148t69 60t69 -60.5t31.5 -147.5q0 -88 -31.5 -148
t-69.5 -60zM512 896q-140 0 -260 -71q-2 -1 -4.5 -4t-3 -11.5t8.5 -15.5q7 -7 16.5 -8.5t14.5 0.5l6 1q102 58 222 58q94 0 179 -36.5t147 -98.5t98.5 -147t36.5 -179q0 -120 -58 -222l-2.5 -7.5t0.5 -15.5t12 -18q9 -6 15.5 -5.5t9.5 4.5l3 4q71 119 71 260
q0 139 -68.5 257t-186.5 186.5t-257 68.5zM734 -19q-102 -58 -222 -58q-94 0 -179 36.5t-147 98.5t-98.5 147t-36.5 179q0 120 58 222q11 23 -4 36q-8 8 -17 8.5t-13 -2.5l-4 -4q-71 -120 -71 -260q0 -139 68.5 -257t186.5 -186.5t257 -68.5q140 0 260 71q15 11 -1 28
q-17 17 -37 10z" />
    <glyph glyph-name="servicenum" unicode="&#xe634;" 
d="M18 235v39h2q5 65 43.5 118.5t99.5 84.5q-43 46 -43 105q0 64 48.5 111t118.5 52q-19 -20 -32 -43q-42 -13 -68.5 -46t-26.5 -73q0 -32 16.5 -59.5t44.5 -44.5q-15 -14 -30 -29q-55 -26 -90.5 -72.5t-40.5 -103.5h-1v-34q0 -53 47 -86q5 -26 15 -52q-45 15 -74 51t-29 82
v0zM850 141q0 -73 -57.5 -124t-138.5 -51h-298q-81 0 -138.5 51t-57.5 124v61h1q5 79 52 145.5t123 104.5l2 16q-56 57 -56 133q0 82 65.5 140.5t158 58.5t157.5 -58.5t65 -140.5q0 -76 -56 -133l-1 -14q77 -38 125 -105t53 -147h1v-61zM992 235q0 -46 -29 -82t-74 -52
q9 25 15 52q47 34 47 87v34h-1q-5 57 -40.5 103.5t-90.5 71.5q-13 15 -30 29q28 18 44.5 45.5t16.5 58.5q0 41 -26.5 74t-67.5 46q-15 24 -33 43q71 -5 119 -52t48 -111q0 -59 -43 -105q61 -31 100 -85t44 -118h1v-39z" />
    <glyph glyph-name="shouye-copy-copy-copy" unicode="&#xe624;" 
d="M1009 344l-501 468l-501 -467q-7 -7 -7.5 -17t6.5 -17.5t17 -7.5t17 7l468 436l468 -438q7 -6 17 -6t17 7q7 8 7 18t-8 17v0zM1009 344zM856 334q-10 0 -17 -7t-7 -17v-372h-194v259h-259v-259h-195v372q0 10 -7 17t-17 7t-17 -7t-7 -17v-421h291v259h162v-259h292v421
q0 10 -7.5 17t-17.5 7v0zM856 334zM686 682h146v-130q0 -10 7 -17t17 -7t17.5 7t7.5 17v178h-195q-10 0 -17 -7t-7 -17t7 -17t17 -7v0zM686 682z" />
    <glyph glyph-name="jijin1" unicode="&#xe626;" 
d="M697 628q9 17 9 22q-3 22 -26 25q-23 0 -34 -19l-132 -191l-132 191q-12 19 -35 19q-23 -2 -25 -25q3 -11 8 -22q3 -3 3 -5l118 -175h-69q-32 0 -32 -25q3 -19 32 -22h100v-50h-100q-32 0 -32 -25q3 -19 32 -22h100v-111q0 -27 31.5 -27t31.5 27v111h101q28 3 31 22
q0 25 -31 25h-101v50h101q28 3 31 22q0 25 -31 25h-69l118 175q-1 2 2 5zM908 282l-74 -7q-13 -2 -18 -13t2 -21l8 -10l-326 -234l-87 105q-7 8 -17.5 9.5t-19.5 -5.5q-87 -62 -100 -70q-8 -4 -12 -13t-1 -18q4 -10 13.5 -15t20.5 -1q8 2 90 62l88 -105q8 -10 21 -10
q8 0 15 5l346 249l5 -7q7 -9 18 -9h3q12 1 18 13l30 66q5 11 -3 21q-7 10 -20 8zM513.5 831q-121.5 0 -224.5 -58t-163 -157.5t-60 -216.5q0 -87 34 -166t97 -140q8 -7 19 -7t19 7.5t8 18t-8 17.5q-56 54 -86 123.5t-30 146.5q0 103 53 190.5t144 138.5t198 51t197.5 -51
t143.5 -138.5t53 -190.5q0 -11 8 -18.5t19 -7.5t18.5 7.5t7.5 18.5q0 117 -60 216.5t-163 157.5t-224.5 58z" />
    <glyph glyph-name="calc" unicode="&#xe79e;" 
d="M778 831h-532q-22 0 -38 -16.5t-16 -39.5v-782q0 -23 16 -39.5t38 -16.5h532q22 0 38 16.5t16 39.5v782q0 23 -16 39.5t-38 16.5v0v0zM346 51q-20 0 -34.5 15t-14.5 35.5t14.5 35.5t34.5 15t34 -15t14 -35.5t-14 -35.5t-34 -15v0v0zM346 225q-20 0 -34.5 14.5t-14.5 35.5
t14.5 36t34.5 15t34 -15t14 -36t-14 -35.5t-34 -14.5v0v0zM346 398q-20 0 -34.5 15t-14.5 36t14.5 35.5t34.5 14.5t34 -14.5t14 -35.5t-14 -36t-34 -15v0v0zM512 51q-20 0 -34 15t-14 35.5t14 35.5t34.5 15t34.5 -15t14 -35.5t-14 -35.5t-35 -15v0v0zM512 225
q-20 0 -34 14.5t-14 35.5t14 36t34.5 15t34.5 -15t14 -36t-14 -35.5t-35 -14.5v0v0zM512 398q-20 0 -34 15t-14 36t14 35.5t34.5 14.5t34.5 -14.5t14 -35.5t-14 -36t-35 -15v0v0zM679 51q-20 0 -34 15t-14 35.5t14 35.5t34 15t34.5 -15t14.5 -35.5t-14.5 -35.5t-34.5 -15v0
v0zM679 225q-20 0 -34 14.5t-14 35.5t14 36t34 15t34.5 -15t14.5 -36t-14.5 -35.5t-34.5 -14.5v0v0zM679 398q-20 0 -34 15t-14 36t14 35.5t34 14.5t34.5 -14.5t14.5 -35.5t-14.5 -36t-34.5 -15v0v0zM742 626q0 -11 -7.5 -18.5t-17.5 -7.5h-407q-11 0 -18 7.5t-7 18.5v81
q0 11 7 18.5t18 7.5h407q10 0 17.5 -7.5t7.5 -18.5v-81v0v0zM742 626z" />
    <glyph glyph-name="jijin-dianji" unicode="&#xe628;" horiz-adv-x="1030" 
d="M512 896q-139 0 -257 -68.5t-186.5 -186.5t-68.5 -257q0 -105 40 -198t111 -165q1 1 3.5 2t3.5 3q18 13 129 93q9 7 19 5.5t17 -9.5l118 -145l429 321l-13 20q-6 8 -2 20q3 9 18 13l95 11h3q11 0 17 -9t3 -20l-38 -87q-3 -9 -18 -13h-2q-12 0 -18 9l-11 15l-448 -333
q-4 -5 -15 -5q-14 0 -20 9l-118 145q-73 -55 -107 -78q142 -114 323 -114q104 0 198.5 40.5t163.5 109t109.5 163.5t40.5 199q-3 104 -45 198t-111 162.5t-164 109t-199 40.5zM730 733q-4 -4 -4 -6l-141 -216h83q38 0 38 -31q-4 -24 -38 -27h-120v-62h120q38 0 38 -31
q-4 -24 -38 -27h-120v-136q0 -33 -38 -33t-38 33v136h-116q-34 3 -38 27q0 31 38 31h120v62h-120q-34 3 -38 27q0 31 38 31h83l-141 216q0 2 -4 6q-9 18 -11 27q3 28 31 31q26 0 40 -24l158 -236l158 236q14 24 40 24q28 -3 31 -31q0 -4 -11 -27z" />
    <glyph glyph-name="yaopin1" unicode="&#xe62d;" 
d="M512 896q104 0 197.5 -39.5t164.5 -110.5t110.5 -164.5t39.5 -197.5t-39.5 -197.5t-110.5 -164.5t-164.5 -110.5t-197.5 -39.5t-197.5 39.5t-164.5 110.5t-110.5 164.5t-39.5 197.5t39.5 197.5t110.5 164.5t164.5 110.5t197.5 39.5zM850 722q-66 66 -153.5 103t-184.5 37
t-184.5 -37t-153.5 -103t-103 -153.5t-37 -184.5t37 -184.5t103 -153.5t153.5 -103t184.5 -37t184.5 37t153.5 103t103 153.5t37 184.5t-37 184.5t-103 153.5zM603 382h-66v78q0 7 -5.5 13t-13.5 6t-13.5 -6t-5.5 -13v-78h-66q-7 0 -12.5 -5.5t-5.5 -13.5t5.5 -13.5
t12.5 -5.5h66v-78q0 -8 5.5 -13.5t13.5 -5.5t13.5 5.5t5.5 13.5v78h66q7 0 13 5.5t6 13.5t-6 13.5t-13 5.5zM812 242l-32 33l-8 10v232q0 35 -25.5 60.5t-61.5 25.5h-77q-1 39 -29 67t-68 28t-68.5 -28t-29.5 -67h-82q-36 0 -61.5 -25.5t-25.5 -60.5v-284q0 -35 25.5 -60
t61.5 -25h354q22 0 44 12q16 -15 37 -16h2q22 0 40 15l1 2q17 16 18 39q0 25 -15 42zM511 660q24 0 41 -16.5t19 -40.5h-121q2 24 19.5 40.5t41.5 16.5zM331 186q-20 0 -34.5 13.5t-14.5 33.5v284q0 20 14.5 34t34.5 14h82v-11q0 -8 5.5 -13.5t13 -5.5t13 5.5t5.5 13.5v11
h121v-11q0 -8 5.5 -13.5t14.5 -5.5q7 0 12.5 5.5t5.5 13.5v11h76q21 0 35 -14t14 -34v-191l-13 14q-16 18 -40 18q-24 2 -42 -15l-1 -1q-17 -16 -18 -40q0 -25 15 -42l33 -34l13 -15l20 -22q-7 -3 -16 -3h-354zM726 279l-30 -28l-33 36q-6 6 -5 14q0 7 6 13l2 2q6 5 14 5
q9 0 13 -6zM783 188l-2 -1q-5 -6 -14 -6q-9 2 -13 7l-31 34l30 28l31 -34q6 -6 5 -14q0 -8 -6 -14z" />
    <glyph glyph-name="ziyuan" unicode="&#xe62e;" 
d="M219 896h-4q-68 0 -116.5 -48.5t-48.5 -116.5v-691q0 -69 48.5 -117t116.5 -48h759l-19 62q-15 48 -15 102t16 105l18 60v692h-755zM935 172l-8 -25v-10h-802q38 35 90 35h720zM99 -38q-15 25 -19 55l833 -26q0 -19 5 -29h-819zM78 32v7v7h833v-29h-831q-1 10 -1 20z
M920 102q0 -19 -4 -29h-829q10 30 31 53zM219 -108q-53 0 -91 35h797v-10l7 -25h-713z" />
    <glyph glyph-name="ziyuan1" unicode="&#xe631;" 
d="M351 -128h454q32 51 33 112q4 46 -12.5 90.5t-42.5 75t-52.5 54.5t-45.5 35l-19 11q21 5 35.5 18t21.5 28.5t10.5 30t4.5 23.5v10q-256 153 -425 392q51 -58 90 -96t62 -54t41 -21t25.5 -2t16.5 8.5t14 6.5q17 2 37.5 -10t35.5 -15q17 -3 23.5 5.5t4.5 16.5q-1 4 2 7.5
t7.5 7t6.5 5.5q1 3 0 6.5t-3 5.5l-2 3q2 0 4.5 0.5t6 3.5t1.5 9v3q0 7 6 11q5 -2 10.5 -2t11.5 2q2 1 4.5 5t0 12t-12.5 15q-15 14 -15 33q0 9 4 17h26q1 9 1 19q0 39 -21.5 70.5t-56.5 45.5q-41 26 -89 26q-40 0 -75 -18q-21 16 -51 16q-14 0 -28 -4q-101 -42 -75 -257
q3 -25 -4 -39t-20 -15.5t-26 0.5t-22 6l-10 4q13 -25 37 -40t53 -15h7q34 3 56 20t29 39.5t9 45t0 37.5l-2 15q9 -7 19.5 -20.5t16.5 -33t-7 -36.5q-32 -41 -71 -85.5t-62 -68.5l-23 -24q-202 -257 -276 -579q128 332 149 359q9 12 18 -2q0 -1 2 -3l1 -1q8 -13 58 -72
t95.5 -111.5t45.5 -53.5q-44 -43 -50 -104zM611 99q9 5 20 5q30 0 40 -28q11 28 41 28q10 0 20 -5q21 -11 21.5 -34.5t-21 -51.5t-61.5 -47q-40 19 -62 47t-21 51.5t21 34.5h2zM279 215q-12 4 0 27q93 122 228 189q23 11 20 7q-1 -2 -86 -64q-69 -51 -69 -60
q132 -225 168 -490q-56 212 -105 207q-11 -2 -17 -13z" />
    <glyph glyph-name="gerenbingshi" unicode="&#xe693;" 
d="M950 582v-541q0 -70 -49.5 -119.5t-118.5 -49.5h-540v0q-69 0 -118.5 49.5t-49.5 119.5v686q0 70 49.5 119.5t118.5 49.5h400q3 -2 6 -5l292 -292q3 -3 4 -6q5 -5 6 -11zM714 414h-124v123v0q0 7 -5 12.5t-13 5.5h-120v0q-8 0 -13 -5.5t-5 -12.5v-124h-124v0q-7 0 -12 -5
t-5 -12v-121v0q0 -7 5 -12.5t12 -5.5h124v-123v0q0 -8 5 -13t13 -5h120v0q8 0 13 5t5 13v123h124v0q7 0 12 5.5t5 12.5v121v0q0 7 -5 12.5t-12 5.5zM658 823v-171q1 -19 15.5 -33.5t33.5 -15.5h170z" />
    <glyph glyph-name="jizh" unicode="&#xe6a1;" 
d="M874 686h-181v120q0 25 -18 42.5t-43 17.5h-240q-25 0 -42 -17.5t-17 -42.5v-120h-179q-50 0 -85 -35t-35 -85v-478q0 -49 35 -84.5t85 -35.5h720q49 0 84.5 35.5t35.5 84.5v478q0 50 -35.5 85t-84.5 35zM394 806h240v-120h-240v120zM754 267h-181v-179h-120v179h-179
v120h179v179h120v-179h179v-120h2zM754 267z" />
    <glyph glyph-name="seleted" unicode="&#xe622;" 
d="M800 621l-378 -378l-185 179l-90 -89l231 -231l44 -44l45 44l423 429z" />
    <glyph glyph-name="shouru1" unicode="&#xe629;" 
d="M369 265q27 67 83 121q-120 4 -215.5 25.5t-152.5 59t-57 85.5v-108q0 -64 96 -114.5t246 -68.5zM507 448q6 0 16.5 0.5t13.5 0.5q114 63 251 63q20 0 65 -5q64 26 99.5 60.5t35.5 72.5v64q0 52 -64.5 96.5t-175 70t-241 25.5t-241 -25.5t-175 -70t-64.5 -96.5v-64
q0 -52 64.5 -96.5t175 -70t240.5 -25.5v0zM394 5q-163 12 -265 56.5t-102 110.5v-108q0 -52 64.5 -96.5t175 -70t240.5 -25.5q6 0 14.5 0.5t12.5 0.5q-89 51 -140 132zM362 74q-147 19 -241 69t-94 113v108q0 -61 89.5 -104t235.5 -59q-5 -35 -5 -41q0 -39 15 -86zM689 -23
h-136q-19 1 -29 12t-12 26q2 14 12 22.5t29 9.5h136v35l-136 1q-19 1 -29 11q-10 9 -12 23q2 14 12 23t29 10h102l-95 131q-7 8 -13 17t-6 20v3q4 15 14.5 25t39.5 12q16 0 30 -9q14 -8 22 -17l107 -155l117 156q9 9 22 17q14 7 30 8q11 0 19.5 -1.5t15.5 -5.5t11.5 -11.5
t6.5 -18.5q0 -16 -14 -31l-109 -140h103q19 -1 29.5 -10t11.5 -23q-1 -14 -12 -24t-29 -11l-135 -1v-34h135q19 -1 29.5 -11t11.5 -24q-1 -14 -12 -24q-10 -9 -29 -10h-135v-59q-3 -47 -65 -47q-31 0 -48 11.5t-19 35.5v58v0z" />
    <glyph glyph-name="fangxing-copy-copy-copy" unicode="&#xe79f;" 
d="M-17 913h1055v-1055h-1055v1055z" />
  </font>
</defs>
</svg>
